<svg xmlns="http://www.w3.org/2000/svg" id="canvas" viewBox="285.295 352.913 1125.370 142.596"><path d="M 398.37,359.85 C 397.65 358.22, 396.53 357.03, 393.99 356.37 C 391.45 355.71, 389.49 355.76, 385.68 356.55 C 381.87 357.33, 379.53 358.17, 374.94 360.31 C 370.35 362.44, 367.98 363.90, 362.73 367.21 C 357.48 370.53, 354.54 372.40, 348.69 376.87 C 342.83 381.33, 339.49 383.98, 333.44 389.53 C 327.40 395.09, 324.06 398.38, 318.45 404.66 C 312.84 410.94, 309.97 414.46, 305.39 420.93 C 300.82 427.40, 298.69 430.81, 295.57 437.02 C 292.45 443.24, 291.22 446.35, 289.79 451.99 C 288.37 457.64, 288.06 460.34, 288.45 465.26 C 288.84 470.18, 289.46 472.62, 291.76 476.59 C 294.06 480.57, 295.95 482.40, 299.93 485.13 C 303.91 487.87, 306.54 488.82, 311.64 490.27 C 316.74 491.71, 319.63 492.02, 325.43 492.35 C 331.23 492.68, 334.48 492.48, 340.62 491.91 C 346.76 491.33, 350.07 490.72, 356.12 489.48 C 362.16 488.24, 365.26 487.35, 370.82 485.70 C 376.39 484.04, 379.36 482.90, 383.94 481.21 C 388.53 479.52, 390.82 478.93, 393.74 477.24 C 396.67 475.55, 397.94 474.28, 398.58 472.75 C 399.23 471.21, 398.53 469.97, 396.96 469.56 C 395.39 469.15, 393.83 469.61, 390.73 470.69 C 387.63 471.78, 385.79 473.09, 381.45 474.97 C 377.11 476.85, 374.34 478.29, 369.04 480.08 C 363.75 481.87, 360.75 482.73, 354.97 483.94 C 349.18 485.15, 345.95 485.68, 340.13 486.12 C 334.31 486.56, 331.19 486.61, 325.87 486.15 C 320.55 485.69, 317.94 485.18, 313.54 483.82 C 309.14 482.46, 307.06 481.49, 303.86 479.35 C 300.66 477.21, 299.40 476.05, 297.53 473.11 C 295.65 470.17, 294.99 468.63, 294.47 464.64 C 293.95 460.66, 293.86 458.29, 294.91 453.17 C 295.96 448.05, 296.92 445.00, 299.72 439.04 C 302.51 433.08, 304.52 429.69, 308.89 423.38 C 313.26 417.06, 316.08 413.58, 321.58 407.47 C 327.09 401.36, 330.41 398.15, 336.42 392.84 C 342.43 387.53, 345.78 384.99, 351.64 380.91 C 357.50 376.84, 360.52 375.11, 365.72 372.45 C 370.92 369.79, 373.37 368.77, 377.65 367.61 C 381.93 366.45, 383.94 366.87, 387.11 366.66 C 390.28 366.46, 391.39 367.03, 393.49 366.60 C 395.59 366.17, 396.65 365.84, 397.62 364.49 C 398.60 363.14, 399.10 361.47, 398.37 359.85" style="stroke: black; fill: black;"/><path d="M 443.06,419.25 C 441.45 419.13, 440.43 419.35, 438.75 420.91 C 437.06 422.47, 436.28 423.81, 434.66 427.03 C 433.03 430.26, 432.29 432.76, 430.62 437.04 C 428.96 441.32, 427.95 443.93, 426.32 448.43 C 424.68 452.93, 423.62 455.29, 422.47 459.54 C 421.32 463.79, 420.49 465.87, 420.56 469.67 C 420.62 473.48, 421.03 475.56, 422.79 478.57 C 424.56 481.58, 426.16 483.24, 429.39 484.72 C 432.61 486.19, 434.86 486.34, 438.91 485.95 C 442.95 485.55, 445.14 484.64, 449.61 482.75 C 454.08 480.87, 456.45 479.50, 461.24 476.54 C 466.02 473.58, 468.64 471.73, 473.54 467.95 C 478.43 464.18, 481.05 461.84, 485.72 457.66 C 490.39 453.48, 492.79 451.03, 496.87 447.05 C 500.96 443.08, 503.04 440.99, 506.17 437.78 C 509.29 434.57, 511.36 433.45, 512.50 430.98 C 513.64 428.52, 513.07 426.73, 511.86 425.46 C 510.65 424.20, 508.53 423.60, 506.44 424.66 C 504.34 425.71, 503.17 427.47, 501.38 430.75 C 499.59 434.02, 499.05 436.72, 497.48 441.04 C 495.92 445.37, 495.00 448.04, 493.58 452.36 C 492.16 456.69, 491.15 458.88, 490.37 462.68 C 489.59 466.48, 489.19 468.52, 489.66 471.37 C 490.13 474.22, 491.32 475.93, 492.73 476.94 C 494.13 477.95, 495.54 477.53, 496.67 476.42 C 497.80 475.31, 497.87 473.78, 498.36 471.39 C 498.84 468.99, 498.43 467.69, 499.08 464.45 C 499.73 461.20, 500.14 459.08, 501.60 455.16 C 503.05 451.25, 504.37 448.75, 506.36 444.88 C 508.34 441.01, 510.06 439.04, 511.52 435.82 C 512.98 432.60, 513.86 431.04, 513.66 428.79 C 513.45 426.55, 512.13 425.20, 510.50 424.60 C 508.87 424.00, 507.44 424.08, 505.49 425.78 C 503.54 427.48, 503.33 429.69, 500.74 433.10 C 498.16 436.51, 496.33 438.77, 492.56 442.83 C 488.79 446.89, 486.41 449.33, 481.89 453.40 C 477.37 457.47, 474.76 459.71, 469.96 463.16 C 465.16 466.62, 462.51 468.27, 457.89 470.67 C 453.27 473.08, 450.82 474.03, 446.87 475.19 C 442.92 476.36, 440.94 476.35, 438.15 476.50 C 435.37 476.66, 434.48 476.41, 432.93 475.96 C 431.38 475.50, 431.09 475.50, 430.41 474.22 C 429.73 472.94, 429.54 472.10, 429.53 469.57 C 429.52 467.04, 429.51 465.21, 430.38 461.57 C 431.26 457.93, 432.19 455.50, 433.90 451.37 C 435.61 447.24, 436.82 444.72, 438.93 440.90 C 441.03 437.08, 442.72 435.26, 444.43 432.27 C 446.13 429.28, 446.97 428.12, 447.45 425.96 C 447.92 423.80, 447.68 422.82, 446.80 421.48 C 445.92 420.14, 444.68 419.36, 443.06 419.25" style="stroke: black; fill: black;"/><path d="M 555.87,436.70 C 554.25 436.75, 553.54 437.24, 551.99 438.64 C 550.43 440.04, 549.53 441.06, 548.11 443.71 C 546.70 446.35, 546.36 448.63, 544.89 451.89 C 543.43 455.14, 542.44 457.08, 540.79 459.99 C 539.14 462.89, 537.52 464.07, 536.62 466.40 C 535.73 468.73, 535.70 470.05, 536.29 471.62 C 536.89 473.20, 537.95 474.00, 539.59 474.27 C 541.22 474.55, 542.91 474.51, 544.47 473.00 C 546.02 471.49, 546.13 469.82, 547.37 466.73 C 548.60 463.64, 548.83 461.26, 550.62 457.53 C 552.41 453.80, 553.70 451.66, 556.31 448.07 C 558.93 444.48, 560.57 442.61, 563.72 439.58 C 566.87 436.56, 568.69 435.16, 572.08 432.94 C 575.46 430.72, 577.34 429.82, 580.65 428.49 C 583.97 427.17, 585.69 426.74, 588.66 426.32 C 591.63 425.90, 592.96 426.22, 595.50 426.38 C 598.05 426.55, 599.37 427.08, 601.38 427.13 C 603.39 427.19, 604.12 426.98, 605.56 426.66 C 606.99 426.35, 607.71 426.40, 608.56 425.56 C 609.41 424.72, 609.98 423.70, 609.82 422.45 C 609.67 421.20, 609.13 420.46, 607.79 419.31 C 606.44 418.15, 605.58 417.36, 603.12 416.67 C 600.65 415.99, 598.75 415.69, 595.47 415.88 C 592.18 416.06, 590.33 416.53, 586.71 417.58 C 583.09 418.63, 581.15 419.30, 577.38 421.12 C 573.61 422.95, 571.60 424.10, 567.86 426.72 C 564.11 429.34, 562.17 430.93, 558.65 434.23 C 555.12 437.53, 553.38 439.52, 550.21 443.22 C 547.04 446.92, 545.55 449.08, 542.81 452.73 C 540.06 456.37, 538.33 458.23, 536.49 461.44 C 534.66 464.65, 533.62 466.26, 533.61 468.80 C 533.60 471.33, 534.86 472.77, 536.45 474.12 C 538.03 475.46, 539.50 475.86, 541.52 475.52 C 543.54 475.18, 544.79 474.46, 546.54 472.42 C 548.29 470.37, 548.61 468.36, 550.29 465.30 C 551.97 462.24, 553.07 460.29, 554.95 457.11 C 556.83 453.93, 558.39 452.25, 559.68 449.41 C 560.97 446.57, 561.32 445.10, 561.40 442.89 C 561.48 440.68, 561.18 439.60, 560.08 438.37 C 558.97 437.13, 557.49 436.64, 555.87 436.70" style="stroke: black; fill: black;"/><path d="M 643.33,425.97 C 641.67 425.97, 640.64 426.35, 638.98 428.02 C 637.31 429.68, 636.70 431.16, 635.01 434.30 C 633.32 437.45, 632.42 439.87, 630.52 443.74 C 628.62 447.61, 627.52 449.90, 625.53 453.66 C 623.54 457.43, 622.11 459.29, 620.58 462.56 C 619.04 465.84, 618.21 467.51, 617.85 470.06 C 617.49 472.61, 617.91 474.05, 618.76 475.32 C 619.62 476.58, 620.73 476.83, 622.13 476.39 C 623.53 475.95, 624.39 475.06, 625.76 473.11 C 627.14 471.15, 627.52 469.66, 629.01 466.59 C 630.51 463.53, 631.28 461.42, 633.24 457.77 C 635.20 454.13, 636.53 451.97, 638.81 448.37 C 641.08 444.77, 642.78 442.84, 644.62 439.76 C 646.46 436.68, 647.49 435.32, 648.02 432.97 C 648.56 430.62, 648.23 429.42, 647.29 428.02 C 646.35 426.62, 644.99 425.97, 643.33 425.97" style="stroke: black; fill: black;"/><path d="M 665.46,382.25 C 666.81 381.08, 667.60 380.15, 667.17 380.62 C 666.74 381.10, 664.40 383.56, 663.29 384.63 C 662.19 385.69, 661.54 386.62, 661.64 385.95 C 661.74 385.28, 663.87 382.04, 663.80 381.30 C 663.72 380.55, 662.47 381.06, 661.26 382.21 C 660.06 383.36, 657.95 386.18, 657.78 387.03 C 657.60 387.89, 658.86 387.45, 660.40 386.49 C 661.94 385.54, 664.11 383.43, 665.46 382.25" style="stroke: black; fill: black;"/><path d="M 721.40,431.80 C 721.01 430.07, 720.04 429.10, 717.98 427.91 C 715.92 426.73, 714.32 425.85, 711.10 425.88 C 707.88 425.91, 705.64 426.69, 701.88 428.06 C 698.11 429.44, 696.18 430.53, 692.25 432.76 C 688.32 434.98, 686.14 436.31, 682.21 439.17 C 678.28 442.03, 676.09 443.74, 672.59 447.05 C 669.08 450.37, 667.24 452.18, 664.70 455.76 C 662.16 459.34, 660.67 461.22, 659.89 464.95 C 659.11 468.68, 659.31 471.08, 660.78 474.42 C 662.25 477.75, 663.86 479.70, 667.23 481.62 C 670.59 483.54, 673.06 483.72, 677.62 484.00 C 682.18 484.28, 684.83 483.91, 690.03 483.00 C 695.23 482.10, 698.18 481.32, 703.61 479.48 C 709.05 477.64, 712.02 476.40, 717.21 473.80 C 722.39 471.20, 725.10 469.63, 729.52 466.50 C 733.95 463.37, 736.07 461.62, 739.32 458.14 C 742.57 454.67, 744.03 452.82, 745.77 449.12 C 747.51 445.43, 748.20 443.27, 748.02 439.65 C 747.84 436.03, 746.84 433.97, 744.87 431.03 C 742.90 428.08, 741.28 426.67, 738.17 424.91 C 735.06 423.15, 732.88 422.67, 729.32 422.21 C 725.76 421.76, 723.52 421.85, 720.39 422.63 C 717.26 423.42, 715.59 424.49, 713.66 426.13 C 711.73 427.77, 710.94 429.16, 710.74 430.83 C 710.55 432.50, 711.37 433.60, 712.67 434.48 C 713.97 435.36, 715.27 435.14, 717.27 435.22 C 719.27 435.30, 720.46 435.10, 722.67 434.88 C 724.89 434.67, 726.20 434.13, 728.35 434.14 C 730.50 434.15, 731.66 434.38, 733.42 434.93 C 735.17 435.47, 736.05 435.79, 737.12 436.87 C 738.20 437.96, 738.56 438.54, 738.80 440.35 C 739.03 442.17, 739.24 443.31, 738.29 445.94 C 737.33 448.56, 736.53 450.41, 734.03 453.49 C 731.52 456.57, 729.67 458.38, 725.75 461.32 C 721.83 464.26, 719.25 465.83, 714.43 468.21 C 709.60 470.59, 706.71 471.72, 701.63 473.21 C 696.55 474.70, 693.66 475.20, 689.02 475.65 C 684.39 476.09, 681.90 475.92, 678.44 475.43 C 674.98 474.93, 673.67 474.10, 671.72 473.19 C 669.77 472.27, 669.30 472.08, 668.70 470.83 C 668.10 469.59, 668.15 469.07, 668.71 466.98 C 669.27 464.89, 669.64 463.25, 671.49 460.38 C 673.34 457.52, 674.90 455.60, 677.95 452.65 C 680.99 449.69, 683.08 448.03, 686.71 445.61 C 690.34 443.20, 692.54 442.04, 696.11 440.57 C 699.67 439.09, 701.49 438.62, 704.51 438.23 C 707.53 437.85, 708.94 438.67, 711.22 438.64 C 713.50 438.62, 714.19 438.54, 715.93 438.12 C 717.67 437.70, 718.82 437.81, 719.92 436.54 C 721.01 435.28, 721.78 433.53, 721.40 431.80" style="stroke: black; fill: black;"/><path d="M 778.87,426.83 C 777.29 426.47, 776.27 426.56, 774.38 427.75 C 772.49 428.95, 771.35 430.04, 769.40 432.80 C 767.46 435.55, 766.56 437.89, 764.67 441.53 C 762.78 445.17, 761.60 447.29, 759.97 450.98 C 758.33 454.67, 757.01 456.47, 756.49 459.98 C 755.97 463.48, 756.18 465.49, 757.39 468.51 C 758.60 471.53, 759.80 473.25, 762.55 475.07 C 765.30 476.89, 767.35 477.62, 771.13 477.62 C 774.90 477.62, 777.07 476.63, 781.43 475.07 C 785.78 473.51, 788.17 472.30, 792.91 469.82 C 797.65 467.35, 800.29 465.78, 805.12 462.68 C 809.95 459.58, 812.53 457.73, 817.07 454.32 C 821.61 450.91, 823.92 448.89, 827.83 445.64 C 831.73 442.39, 833.95 440.89, 836.60 438.06 C 839.25 435.24, 840.59 433.89, 841.10 431.51 C 841.61 429.14, 840.78 427.54, 839.15 426.18 C 837.52 424.83, 835.51 424.15, 832.95 424.73 C 830.38 425.30, 828.59 426.46, 826.34 429.06 C 824.08 431.66, 823.42 434.11, 821.66 437.73 C 819.91 441.35, 818.59 443.41, 817.55 447.14 C 816.52 450.88, 815.64 454.20, 816.48 456.41 C 817.32 458.62, 819.78 459.30, 821.75 458.21 C 823.72 457.12, 824.45 453.92, 826.33 450.97 C 828.21 448.01, 829.04 446.19, 831.13 443.45 C 833.21 440.72, 835.12 439.60, 836.75 437.30 C 838.37 435.00, 839.00 433.83, 839.25 431.95 C 839.50 430.07, 838.90 428.78, 837.99 427.90 C 837.08 427.03, 836.21 426.67, 834.70 427.58 C 833.19 428.49, 832.72 429.86, 830.44 432.46 C 828.15 435.07, 826.72 437.24, 823.29 440.61 C 819.86 443.98, 817.58 446.00, 813.27 449.32 C 808.96 452.63, 806.41 454.40, 801.72 457.18 C 797.03 459.96, 794.34 461.34, 789.80 463.24 C 785.26 465.14, 782.77 465.90, 779.00 466.69 C 775.23 467.49, 773.40 467.11, 770.95 467.21 C 768.50 467.32, 767.84 467.46, 766.74 467.23 C 765.64 466.99, 765.48 467.05, 765.45 466.03 C 765.43 465.01, 765.89 464.33, 766.59 462.14 C 767.30 459.96, 767.53 458.14, 768.97 455.11 C 770.42 452.07, 771.69 450.05, 773.81 446.98 C 775.92 443.91, 777.81 442.37, 779.55 439.76 C 781.29 437.14, 781.98 435.93, 782.53 433.89 C 783.07 431.85, 782.99 430.97, 782.26 429.56 C 781.53 428.15, 780.45 427.19, 778.87 426.83" style="stroke: black; fill: black;"/><path d="M 969.13,382.91 C 968.42 381.25, 967.24 379.95, 964.65 379.23 C 962.06 378.52, 960.13 378.73, 956.18 379.33 C 952.23 379.92, 949.68 380.58, 944.89 382.20 C 940.10 383.82, 937.43 385.08, 932.24 387.41 C 927.06 389.74, 924.09 391.16, 918.95 393.86 C 913.81 396.56, 911.02 398.07, 906.55 400.90 C 902.07 403.72, 899.84 405.10, 896.57 407.99 C 893.29 410.89, 891.55 412.18, 890.18 415.37 C 888.81 418.56, 888.91 420.71, 889.73 423.95 C 890.55 427.20, 891.57 429.20, 894.28 431.59 C 896.99 433.99, 899.31 434.42, 903.29 435.94 C 907.26 437.46, 909.69 437.91, 914.16 439.19 C 918.64 440.48, 921.22 441.03, 925.65 442.36 C 930.08 443.69, 932.52 444.36, 936.31 445.83 C 940.10 447.30, 941.97 448.33, 944.61 449.71 C 947.26 451.10, 948.20 451.87, 949.54 452.74 C 950.88 453.62, 951.26 453.61, 951.31 454.08 C 951.36 454.55, 950.93 454.33, 949.78 455.09 C 948.62 455.86, 947.83 456.34, 945.54 457.89 C 943.26 459.44, 941.81 460.93, 938.36 462.85 C 934.91 464.78, 932.69 465.81, 928.29 467.52 C 923.89 469.24, 921.22 470.06, 916.36 471.41 C 911.50 472.76, 908.76 473.41, 903.98 474.28 C 899.20 475.14, 896.61 475.32, 892.46 475.74 C 888.32 476.16, 886.31 475.88, 883.26 476.39 C 880.21 476.91, 878.44 477.14, 877.21 478.31 C 875.99 479.48, 875.86 481.05, 877.15 482.27 C 878.43 483.48, 880.40 484.19, 883.65 484.40 C 886.91 484.60, 889.10 483.96, 893.43 483.29 C 897.76 482.63, 900.37 482.12, 905.31 481.08 C 910.25 480.05, 913.05 479.40, 918.13 478.12 C 923.22 476.85, 925.95 476.13, 930.74 474.71 C 935.53 473.30, 937.91 472.59, 942.09 471.05 C 946.27 469.50, 948.52 469.04, 951.62 466.99 C 954.72 464.95, 956.17 463.60, 957.61 460.82 C 959.04 458.05, 959.17 456.05, 958.78 453.13 C 958.40 450.21, 957.73 448.53, 955.70 446.22 C 953.67 443.91, 951.98 443.17, 948.64 441.58 C 945.29 440.00, 943.10 439.62, 938.96 438.30 C 934.81 436.98, 932.36 436.37, 927.91 434.97 C 923.46 433.57, 920.91 432.85, 916.72 431.32 C 912.54 429.79, 910.23 428.89, 906.98 427.31 C 903.73 425.74, 902.43 424.60, 900.47 423.45 C 898.51 422.29, 897.68 422.42, 897.15 421.53 C 896.63 420.64, 896.91 420.62, 897.83 419.01 C 898.75 417.40, 899.27 416.00, 901.74 413.48 C 904.21 410.96, 906.16 409.21, 910.19 406.41 C 914.22 403.61, 916.95 402.04, 921.88 399.49 C 926.81 396.93, 929.82 395.56, 934.84 393.66 C 939.86 391.75, 942.52 390.83, 946.98 389.95 C 951.44 389.08, 953.76 389.41, 957.14 389.29 C 960.52 389.18, 961.68 389.74, 963.89 389.39 C 966.10 389.03, 967.13 388.81, 968.18 387.52 C 969.23 386.22, 969.83 384.56, 969.13 382.91" style="stroke: black; fill: black;"/><path d="M 1046.97,432.74 C 1046.52 431.09, 1045.66 429.96, 1043.44 428.98 C 1041.23 427.99, 1039.43 427.46, 1035.90 427.84 C 1032.36 428.21, 1030.07 429.13, 1025.77 430.84 C 1021.46 432.56, 1019.10 433.83, 1014.35 436.43 C 1009.60 439.03, 1006.84 440.64, 1002.02 443.86 C 997.20 447.08, 994.49 448.97, 990.24 452.51 C 986.00 456.06, 983.85 457.94, 980.78 461.59 C 977.71 465.25, 976.03 467.02, 974.89 470.79 C 973.76 474.56, 973.69 477.07, 975.11 480.43 C 976.52 483.78, 978.33 485.62, 981.97 487.56 C 985.61 489.50, 988.16 489.70, 993.29 490.12 C 998.43 490.54, 1001.42 490.31, 1007.63 489.68 C 1013.85 489.05, 1017.43 488.40, 1024.37 486.97 C 1031.31 485.53, 1035.73 484.31, 1042.32 482.51 C 1048.91 480.71, 1052.41 479.72, 1057.32 477.98 C 1062.22 476.24, 1065.22 475.41, 1066.85 473.82 C 1068.48 472.22, 1067.70 470.18, 1065.46 470.00 C 1063.22 469.81, 1060.58 471.44, 1055.66 472.89 C 1050.75 474.34, 1047.36 475.49, 1040.89 477.24 C 1034.42 478.98, 1030.05 480.34, 1023.32 481.60 C 1016.58 482.85, 1013.02 483.30, 1007.20 483.52 C 1001.37 483.74, 998.46 483.42, 994.20 482.69 C 989.93 481.97, 988.21 481.00, 985.87 479.90 C 983.53 478.79, 983.14 478.50, 982.49 477.17 C 981.84 475.85, 981.86 475.48, 982.63 473.25 C 983.41 471.03, 983.99 469.20, 986.36 466.05 C 988.73 462.90, 990.64 460.84, 994.48 457.50 C 998.33 454.16, 1000.97 452.27, 1005.59 449.36 C 1010.21 446.44, 1013.02 444.93, 1017.57 442.94 C 1022.12 440.94, 1024.49 440.12, 1028.33 439.40 C 1032.16 438.67, 1034.00 439.42, 1036.75 439.33 C 1039.49 439.24, 1040.25 439.37, 1042.04 438.95 C 1043.82 438.53, 1044.69 438.48, 1045.68 437.24 C 1046.66 436.00, 1047.41 434.40, 1046.97 432.74" style="stroke: black; fill: black;"/><path d="M 1124.97,376.33 C 1123.36 376.43, 1122.32 376.74, 1120.83 378.66 C 1119.35 380.57, 1119.09 382.17, 1117.54 385.89 C 1115.98 389.61, 1115.23 392.26, 1113.06 397.25 C 1110.88 402.25, 1109.47 405.30, 1106.68 410.87 C 1103.89 416.43, 1102.19 419.49, 1099.12 425.06 C 1096.04 430.64, 1094.26 433.56, 1091.30 438.72 C 1088.35 443.89, 1086.85 446.55, 1084.32 450.91 C 1081.80 455.27, 1080.26 457.14, 1078.68 460.53 C 1077.11 463.93, 1076.25 465.41, 1076.45 467.89 C 1076.64 470.38, 1077.70 471.74, 1079.67 472.97 C 1081.65 474.19, 1083.68 474.91, 1086.31 474.03 C 1088.93 473.15, 1089.90 471.42, 1092.80 468.56 C 1095.70 465.69, 1097.12 463.39, 1100.80 459.70 C 1104.49 456.01, 1106.80 453.74, 1111.23 450.10 C 1115.67 446.47, 1118.32 444.48, 1122.97 441.51 C 1127.63 438.53, 1130.30 437.07, 1134.50 435.23 C 1138.70 433.38, 1140.99 432.95, 1143.99 432.29 C 1146.99 431.63, 1148.08 431.79, 1149.49 431.92 C 1150.91 432.05, 1150.94 431.97, 1151.05 432.94 C 1151.17 433.92, 1150.49 434.53, 1150.05 436.78 C 1149.61 439.03, 1149.73 440.84, 1148.87 444.19 C 1148.00 447.54, 1147.18 449.78, 1145.72 453.53 C 1144.26 457.27, 1143.09 459.33, 1141.58 462.92 C 1140.06 466.51, 1138.58 468.38, 1138.15 471.45 C 1137.73 474.52, 1138.37 476.77, 1139.44 478.28 C 1140.51 479.80, 1142.00 479.85, 1143.50 479.03 C 1145.00 478.22, 1145.63 476.70, 1146.94 474.20 C 1148.26 471.70, 1148.63 469.95, 1150.08 466.51 C 1151.53 463.08, 1152.54 460.90, 1154.21 457.01 C 1155.89 453.12, 1157.12 451.00, 1158.45 447.08 C 1159.77 443.16, 1160.93 441.02, 1160.84 437.41 C 1160.74 433.81, 1159.90 431.71, 1157.97 429.06 C 1156.05 426.41, 1154.39 425.05, 1151.23 424.16 C 1148.06 423.27, 1146.06 423.60, 1142.14 424.61 C 1138.22 425.62, 1136.11 426.86, 1131.61 429.19 C 1127.10 431.52, 1124.48 433.12, 1119.60 436.27 C 1114.73 439.43, 1112.03 441.46, 1107.25 444.98 C 1102.47 448.49, 1099.94 450.65, 1095.72 453.86 C 1091.49 457.08, 1089.16 458.62, 1086.12 461.04 C 1083.07 463.45, 1081.55 464.18, 1080.49 465.94 C 1079.43 467.71, 1080.23 469.15, 1080.83 469.87 C 1081.44 470.58, 1082.47 470.74, 1083.52 469.52 C 1084.57 468.31, 1084.79 466.92, 1086.09 463.79 C 1087.38 460.65, 1087.96 458.30, 1090.00 453.84 C 1092.03 449.38, 1093.46 446.68, 1096.26 441.47 C 1099.05 436.26, 1100.82 433.33, 1103.97 427.78 C 1107.12 422.23, 1108.88 419.17, 1112.01 413.73 C 1115.14 408.29, 1116.80 405.33, 1119.60 400.59 C 1122.39 395.86, 1123.96 393.59, 1125.99 390.06 C 1128.01 386.52, 1129.14 385.31, 1129.72 382.93 C 1130.30 380.55, 1129.83 379.47, 1128.89 378.15 C 1127.94 376.83, 1126.58 376.23, 1124.97 376.33" style="stroke: black; fill: black;"/><path d="M 1234.08,442.83 C 1234.86 441.31, 1234.82 440.00, 1233.92 438.21 C 1233.02 436.42, 1231.98 435.23, 1229.59 433.88 C 1227.20 432.52, 1225.31 431.59, 1221.97 431.45 C 1218.62 431.30, 1216.65 431.97, 1212.88 433.14 C 1209.11 434.32, 1207.12 435.27, 1203.11 437.31 C 1199.10 439.35, 1196.78 440.62, 1192.83 443.33 C 1188.88 446.04, 1186.73 447.71, 1183.35 450.86 C 1179.97 454.02, 1178.18 455.65, 1175.92 459.11 C 1173.67 462.56, 1172.42 464.52, 1172.06 468.14 C 1171.70 471.76, 1172.29 474.10, 1174.13 477.19 C 1175.97 480.28, 1177.72 481.91, 1181.26 483.57 C 1184.80 485.23, 1187.25 485.29, 1191.82 485.48 C 1196.40 485.66, 1199.06 485.32, 1204.12 484.48 C 1209.17 483.64, 1212.00 482.92, 1217.09 481.27 C 1222.18 479.62, 1224.90 478.53, 1229.57 476.25 C 1234.24 473.96, 1236.62 472.65, 1240.45 469.86 C 1244.29 467.08, 1246.09 465.54, 1248.75 462.33 C 1251.41 459.12, 1252.69 457.32, 1253.77 453.81 C 1254.84 450.31, 1254.80 448.15, 1254.13 444.81 C 1253.46 441.46, 1252.45 439.68, 1250.43 437.08 C 1248.42 434.48, 1246.80 433.08, 1244.08 431.80 C 1241.35 430.52, 1239.23 430.34, 1236.82 430.67 C 1234.41 431.01, 1233.02 432.01, 1232.04 433.48 C 1231.06 434.94, 1231.27 436.50, 1231.93 438.00 C 1232.59 439.51, 1233.87 440.12, 1235.35 441.01 C 1236.83 441.90, 1237.86 441.86, 1239.33 442.45 C 1240.79 443.03, 1241.60 443.05, 1242.67 443.94 C 1243.74 444.83, 1244.29 445.43, 1244.69 446.90 C 1245.09 448.37, 1245.16 449.18, 1244.67 451.28 C 1244.19 453.38, 1243.99 454.84, 1242.27 457.40 C 1240.54 459.96, 1239.20 461.55, 1236.05 464.08 C 1232.90 466.62, 1230.73 467.99, 1226.53 470.09 C 1222.33 472.19, 1219.72 473.23, 1215.04 474.60 C 1210.35 475.96, 1207.61 476.47, 1203.11 476.90 C 1198.60 477.33, 1196.09 477.20, 1192.51 476.75 C 1188.93 476.29, 1187.39 475.49, 1185.21 474.62 C 1183.03 473.75, 1182.42 473.48, 1181.62 472.42 C 1180.82 471.36, 1180.88 471.04, 1181.21 469.32 C 1181.54 467.59, 1181.72 466.30, 1183.26 463.78 C 1184.81 461.27, 1186.12 459.47, 1188.93 456.74 C 1191.75 454.02, 1193.77 452.41, 1197.33 450.16 C 1200.90 447.91, 1203.17 446.83, 1206.74 445.50 C 1210.32 444.17, 1212.38 443.83, 1215.22 443.51 C 1218.06 443.19, 1219.13 443.62, 1220.93 443.90 C 1222.74 444.18, 1223.08 444.54, 1224.23 444.91 C 1225.38 445.28, 1225.53 445.55, 1226.69 445.73 C 1227.84 445.92, 1228.54 446.41, 1230.02 445.83 C 1231.50 445.25, 1233.30 444.36, 1234.08 442.83" style="stroke: black; fill: black;"/><path d="M 1322.70,445.52 C 1323.02 443.84, 1322.69 442.62, 1321.28 440.89 C 1319.88 439.17, 1318.60 437.84, 1315.67 436.91 C 1312.75 435.97, 1310.47 435.83, 1306.66 436.22 C 1302.85 436.60, 1300.82 437.42, 1296.62 438.83 C 1292.42 440.24, 1290.08 441.15, 1285.67 443.26 C 1281.26 445.37, 1278.75 446.68, 1274.57 449.39 C 1270.39 452.11, 1268.18 453.73, 1264.77 456.82 C 1261.36 459.91, 1259.48 461.42, 1257.53 464.85 C 1255.59 468.27, 1254.83 470.43, 1255.05 473.95 C 1255.27 477.46, 1256.19 479.83, 1258.65 482.44 C 1261.11 485.05, 1263.32 486.00, 1267.36 486.99 C 1271.39 487.98, 1273.89 487.76, 1278.81 487.39 C 1283.73 487.02, 1286.59 486.48, 1291.97 485.15 C 1297.34 483.82, 1300.35 482.86, 1305.67 480.73 C 1310.99 478.60, 1313.84 477.22, 1318.58 474.50 C 1323.31 471.79, 1325.63 470.23, 1329.33 467.16 C 1333.04 464.09, 1334.74 462.48, 1337.09 459.17 C 1339.45 455.86, 1340.49 453.98, 1341.13 450.61 C 1341.76 447.23, 1341.25 445.17, 1340.27 442.30 C 1339.30 439.43, 1338.05 437.84, 1336.25 436.24 C 1334.45 434.63, 1332.97 434.38, 1331.25 434.27 C 1329.54 434.16, 1328.58 434.71, 1327.70 435.68 C 1326.81 436.65, 1326.84 437.93, 1326.85 439.12 C 1326.86 440.31, 1327.29 440.69, 1327.74 441.62 C 1328.19 442.54, 1328.34 442.89, 1329.09 443.73 C 1329.84 444.56, 1330.90 444.72, 1331.49 445.79 C 1332.08 446.85, 1332.28 447.27, 1332.03 449.05 C 1331.78 450.84, 1331.72 452.14, 1330.25 454.71 C 1328.79 457.28, 1327.67 459.05, 1324.68 461.89 C 1321.69 464.73, 1319.57 466.35, 1315.30 468.92 C 1311.03 471.48, 1308.29 472.84, 1303.33 474.71 C 1298.36 476.59, 1295.43 477.39, 1290.48 478.31 C 1285.53 479.22, 1282.73 479.37, 1278.56 479.28 C 1274.39 479.20, 1272.37 478.58, 1269.63 477.88 C 1266.89 477.18, 1266.11 476.62, 1264.87 475.78 C 1263.64 474.93, 1263.40 474.95, 1263.45 473.65 C 1263.50 472.35, 1263.78 471.50, 1265.13 469.28 C 1266.48 467.07, 1267.49 465.27, 1270.20 462.57 C 1272.92 459.87, 1274.96 458.19, 1278.70 455.78 C 1282.44 453.38, 1284.86 452.17, 1288.90 450.54 C 1292.94 448.90, 1295.32 448.22, 1298.90 447.62 C 1302.47 447.02, 1304.14 447.20, 1306.78 447.51 C 1309.41 447.83, 1310.23 448.76, 1312.08 449.22 C 1313.93 449.67, 1314.49 449.79, 1316.01 449.80 C 1317.53 449.81, 1318.35 450.12, 1319.68 449.27 C 1321.02 448.41, 1322.38 447.19, 1322.70 445.52" style="stroke: black; fill: black;"/><path d="M 1402.92,382.15 C 1401.37 382.15, 1400.45 382.33, 1398.91 384.08 C 1397.38 385.83, 1397.14 387.26, 1395.25 390.89 C 1393.35 394.51, 1392.24 397.20, 1389.45 402.20 C 1386.65 407.19, 1384.78 410.24, 1381.29 415.88 C 1377.80 421.52, 1375.62 424.68, 1371.99 430.38 C 1368.36 436.08, 1366.33 439.07, 1363.15 444.37 C 1359.96 449.66, 1358.43 452.25, 1356.07 456.85 C 1353.71 461.46, 1352.65 463.50, 1351.33 467.39 C 1350.01 471.27, 1349.35 473.01, 1349.46 476.29 C 1349.56 479.58, 1350.30 481.24, 1351.86 483.82 C 1353.42 486.39, 1354.95 487.72, 1357.26 489.17 C 1359.58 490.62, 1361.26 490.97, 1363.43 491.08 C 1365.60 491.18, 1366.70 490.58, 1368.09 489.71 C 1369.48 488.84, 1370.10 488.07, 1370.37 486.73 C 1370.64 485.40, 1370.09 484.15, 1369.46 483.03 C 1368.83 481.92, 1368.15 481.80, 1367.22 481.16 C 1366.30 480.53, 1365.95 480.17, 1364.84 479.87 C 1363.73 479.56, 1362.86 479.82, 1361.67 479.64 C 1360.48 479.47, 1359.59 479.74, 1358.88 479.01 C 1358.18 478.28, 1358.25 477.91, 1358.16 475.98 C 1358.08 474.05, 1357.79 472.69, 1358.47 469.38 C 1359.16 466.07, 1359.73 463.90, 1361.60 459.44 C 1363.48 454.99, 1364.88 452.35, 1367.85 447.12 C 1370.82 441.88, 1372.81 438.87, 1376.46 433.26 C 1380.12 427.65, 1382.33 424.50, 1386.12 419.05 C 1389.91 413.60, 1391.99 410.68, 1395.39 406.01 C 1398.80 401.33, 1400.76 399.12, 1403.15 395.66 C 1405.53 392.20, 1406.62 391.03, 1407.33 388.71 C 1408.03 386.38, 1407.55 385.36, 1406.66 384.05 C 1405.78 382.74, 1404.47 382.14, 1402.92 382.15" style="stroke: black; fill: black;"/></svg>